<?xml version="1.0" encoding="UTF-8"?>
<svg width="17px" height="15px" viewBox="0 0 17 15" version="1.1" xmlns="http://www.w3.org/2000/svg" xmlns:xlink="http://www.w3.org/1999/xlink">
    <!-- Generator: Sketch 50 (54983) - http://www.bohemiancoding.com/sketch -->
    <title>电话 (1)</title>
    <desc>Created with Sketch.</desc>
    <defs></defs>
    <g id="Symbols" stroke="none" stroke-width="1" fill="none" fill-rule="evenodd">
        <g id="iPhone-8" transform="translate(-94.000000, -170.000000)" fill="#295F4E" fill-rule="nonzero">
            <g id="1" transform="translate(12.000000, 116.000000)">
                <g id="电话-(1)" transform="translate(82.000000, 54.000000)">
                    <path d="M8.37796374,5.40864714 C6.54811715,5.40864714 5.07531381,6.88145049 5.07531381,8.71129707 C5.07531381,10.5411437 6.54811715,12.013947 8.37796374,12.013947 C10.2078103,12.013947 11.6806137,10.5411437 11.6806137,8.71129707 C11.6806137,6.88145049 10.1631799,5.40864714 8.37796374,5.40864714 Z M8.37796374,11.1213389 C7.0390516,11.1213389 5.9679219,10.0502092 5.9679219,8.71129707 C5.9679219,7.37238494 7.0390516,6.30125523 8.37796374,6.30125523 C9.71687587,6.30125523 10.7880056,7.37238494 10.7880056,8.71129707 C10.7880056,10.0502092 9.67224547,11.1213389 8.37796374,11.1213389 Z" id="Shape"></path>
                    <path d="M8.33333333,3.35564854 C4.27196653,3.35564854 1.19246862,9.11297071 1.19246862,11.9693166 C1.19246862,13.0404463 1.37099024,14.1562064 2.75453278,14.5578801 C3.78103208,14.8702929 5.47698745,14.8702929 8.24407252,14.8702929 L8.28870293,14.8702929 L8.28870293,14.4239888 L8.33333333,14.8702929 L8.37796374,14.8702929 C11.1450488,14.8702929 12.8410042,14.8702929 13.8675035,14.5578801 C15.251046,14.111576 15.4295676,13.0404463 15.4295676,11.9693166 C15.474198,9.11297071 12.3947001,3.35564854 8.33333333,3.35564854 Z M13.6443515,13.7545328 C12.7517434,14.0669456 11.1004184,14.0223152 8.37796374,14.0669456 L8.28870293,14.0669456 C5.61087866,14.0669456 3.9595537,14.0669456 3.06694561,13.7545328 C2.44211994,13.5313808 2.12970711,13.2189679 2.12970711,12.013947 C2.12970711,9.47001395 5.0306834,4.29288703 8.37796374,4.29288703 C11.7252441,4.29288703 14.6262204,9.47001395 14.6262204,12.013947 C14.58159,13.2189679 14.2691771,13.5313808 13.6443515,13.7545328 Z" id="Shape"></path>
                    <path d="M16.0990237,2.77545328 C14.9386332,0.945606695 12.3054393,0.00836820084 8.33333333,0.00836820084 C3.0223152,0.00836820084 1.05857741,1.70432357 0.389121339,3.13249651 C-0.191073919,4.33751743 -0.0125523013,5.63179916 0.255230126,5.94421199 C0.567642957,6.43514644 1.05857741,6.65829847 1.59414226,6.61366806 C2.12970711,6.56903766 2.62064156,6.30125523 2.79916318,5.89958159 C3.64714086,4.51603905 5.47698745,2.23988842 8.33333333,2.23988842 C10.832636,2.23988842 12.8410042,4.20362622 13.7782427,5.85495119 C14.0906555,6.39051604 14.58159,6.65829847 15.1171548,6.65829847 C15.6527197,6.65829847 16.1436541,6.34588563 16.4560669,5.81032078 C16.679219,5.45327755 16.902371,4.06973501 16.0990237,2.77545328 Z M15.6973501,5.49790795 C15.5634589,5.72105997 15.3849372,5.85495119 15.1617852,5.85495119 C14.9386332,5.85495119 14.7601116,5.72105997 14.58159,5.49790795 C13.5104603,3.62343096 11.2343096,1.43654114 8.33333333,1.43654114 C5.07531381,1.43654114 2.9776848,3.9804742 2.0404463,5.49790795 L1.9958159,5.54253835 C1.9511855,5.58716876 1.77266388,5.76569038 1.50488145,5.76569038 C1.28172943,5.76569038 1.10320781,5.67642957 0.969316597,5.45327755 C0.924686192,5.31938633 0.656903766,4.33751743 1.28172943,3.31101813 C1.9511855,2.23988842 3.69177127,0.90097629 8.33333333,0.90097629 C12.8856346,0.90097629 14.6708508,2.19525802 15.3403068,3.22175732 C16.0097629,4.29288703 15.7419805,5.36401674 15.6973501,5.49790795 Z" id="Shape"></path>
                </g>
            </g>
        </g>
    </g>
</svg>